<svg id="Ñëîé_1" data-name="Ñëîé 1" xmlns="http://www.w3.org/2000/svg" viewBox="0 0 88.87 81.43"><defs><style>.cls-1{fill:#0f2137}.cls-2{fill:#eb4d4b}</style></defs><path class="cls-1" d="M141.54 183h-77a1.5 1.5 0 0 1-1.5-1.5v-51a1.5 1.5 0 0 1 1.5-1.5H113a1.5 1.5 0 1 1 0 3H66v48h74v-27a1.5 1.5 0 0 1 3 0v28.5a1.5 1.5 0 0 1-1.46 1.5z" transform="translate(-63.04 -120.57)"/><path class="cls-2" d="M14.97 48.94l-1.72-1.82 23.61-22.27 11.69 10.62L84.08 2.74l1.69 1.84-37.21 34.28-11.67-10.61-21.92 20.69z"/><path class="cls-2" d="M86.64 7.14L88.87 0l-7.3 1.64 5.07 5.5z"/><path class="cls-1" d="M103.54 196.5A1.5 1.5 0 0 1 102 195v-13a1.5 1.5 0 0 1 3 0v13a1.5 1.5 0 0 1-1.46 1.5zM118 202H89a1.5 1.5 0 0 1 0-3h29a1.5 1.5 0 1 1 0 3z" transform="translate(-63.04 -120.57)"/></svg>