<svg xmlns="http://www.w3.org/2000/svg" xmlns:xlink="http://www.w3.org/1999/xlink" width="128" height="27" version="1.1" viewBox="0 0 128 27"><title>Slice</title><desc>Created with Sketch.</desc><defs><linearGradient id="linearGradient-1" x1="26.718%" x2="108.374%" y1="25.928%" y2="84.3%"><stop offset="0%" stop-color="#FFF"/><stop offset="100%" stop-color="#EEE"/></linearGradient><linearGradient id="linearGradient-2" x1="78%" x2="-8.438%" y1="77.445%" y2="15.654%"><stop offset="0%" stop-color="#FFF"/><stop offset="100%" stop-color="#EEE"/></linearGradient><linearGradient id="linearGradient-3" x1="88.242%" x2="-4.812%" y1="8.764%" y2="78.651%"><stop offset="0%" stop-color="#FFF"/><stop offset="100%" stop-color="#D1D1D1"/></linearGradient><linearGradient id="linearGradient-4" x1="13.774%" x2="104.926%" y1="89.708%" y2="21.251%"><stop offset="0%" stop-color="#FFF"/><stop offset="100%" stop-color="#D1D1D1"/></linearGradient></defs><g id="Page-1" fill="none" fill-rule="evenodd" stroke="none" stroke-width="1"><g id="logo"><g id="Group"><path id="Shape" fill="#FC0D1C" d="M26.0626555,6.05725715 C25.4041561,3.55307275 23.4478136,1.5966947 20.9420057,0.936514285 C18.6380223,0.332485715 16.1271126,0 13.500386,0 C10.9076325,0 8.42915152,0.324 6.14987561,0.913371431 C3.58068818,1.57673577 1.57508923,3.58233111 0.913409018,6.14982857 C0.324287226,8.42862854 0,10.908 0,13.5 C0,16.1274857 0.332008351,18.6377143 0.937344502,20.9412 C1.5957386,23.4458791 3.55246313,25.402639 6.05876633,26.0627143 C8.36197773,26.6675143 10.8728874,27 13.500386,27 C16.1271126,27 18.6380223,26.6675143 20.9420057,26.0627143 C23.4480116,25.4023978 25.4043976,23.4456815 26.0626555,20.9412 C26.6679916,18.6377143 27,16.1274857 27,13.5 C27,10.8732857 26.6679916,8.36228569 26.0626555,6.0588"/><g id="code" transform="translate(5.318182, 7.772727)"><g id="code-copy"><g id="XMLID_84_" fill="url(#linearGradient-1)"><path id="Combined-Shape" d="M3.95795455,1.04132231 L4.35681818,0.635206611 C4.64318182,0.39570248 4.95,0.19785124 5.27727273,0.0624793389 C5.81931818,-0.0624793389 6.42272727,0.0833057853 6.85227273,0.520661157 C7.17954545,0.853884295 7.34318182,1.29123967 7.34318182,1.73900827 C7.34318182,2.18677686 7.17954545,2.613719 6.85227273,2.95735537 L4.12684673,5.72194139 C4.13526746,5.73069475 4.1437428,5.73941415 4.15227273,5.74809918 C4.21363636,5.81057851 4.28522727,5.88347107 4.35681818,5.93553719 L6.85227273,8.47636364 C7.50681818,9.15322312 7.50681818,10.2361984 6.85227273,10.9130578 C6.525,11.246281 6.09545455,11.4128926 5.65568182,11.4128926 C5.22613636,11.4128926 4.79659091,11.246281 4.45909091,10.9130578 L0.552272727,6.93520661 C-0.102272727,6.26876033 -0.102272727,5.1753719 0.552272727,4.50892562 L3.95795455,1.04132231 Z"/></g><g id="XMLID_80_" fill="url(#linearGradient-2)" transform="translate(9.000000, 0.000000)"><path id="Combined-Shape" d="M4.0226893,9.26203966 C3.8853051,9.66597365 3.67260242,10.050159 3.38522727,10.3923967 L2.98636364,10.7985124 C2.7,11.0380165 2.39318182,11.2358678 2.06590909,11.3712397 C1.52386364,11.4961984 0.920454545,11.3504132 0.490909091,10.9130578 C0.163636364,10.5798347 5.68278063e-14,10.1424793 5.68278063e-14,9.69471074 C5.68278063e-14,9.25735541 0.163636364,8.82 0.490909091,8.47636364 L3.221506,5.70653241 C3.21475107,5.69953969 3.20796119,5.69256875 3.20113636,5.68561984 C3.13977273,5.62314049 3.06818182,5.55024793 2.99659091,5.49818182 L0.501136364,2.95735537 C-0.153409091,2.28049587 -0.153409091,1.18710744 0.501136364,0.520661157 C0.828409091,0.187438016 1.25795455,0.0208264463 1.69772727,0.0208264463 C2.1375,0.0208264463 2.55681818,0.187438016 2.89431818,0.520661157 L6.80113636,4.4985124 C7.45568182,5.16495868 7.45568182,6.25834711 6.80113636,6.92479339 L3.39545455,10.3923967 C3.67949778,10.0510796 3.88862944,9.66673628 4.0226893,9.26203966 Z"/></g></g><g id="XMLID_84_"><path id="XMLID_88_" fill="url(#linearGradient-1)" d="M6.85227273,10.9130578 C6.525,11.246281 6.09545455,11.4128926 5.65568182,11.4128926 C5.22613636,11.4128926 4.79659091,11.246281 4.45909091,10.9130578 L0.552272727,6.93520661 C-0.102272727,6.26876033 -0.102272727,5.1753719 0.552272727,4.50892562 L3.95795455,1.04132231 C2.82272727,2.40545455 2.88409091,4.45685951 4.15227273,5.74809918 C4.21363636,5.81057851 4.28522727,5.88347107 4.35681818,5.93553719 L6.85227273,8.47636364 C7.50681818,9.15322312 7.50681818,10.2361984 6.85227273,10.9130578 Z"/><path id="XMLID_87_" fill="url(#linearGradient-3)" d="M3.95795455,1.04132231 L4.35681818,0.635206611 C4.64318182,0.39570248 4.95,0.19785124 5.27727273,0.0624793389 C5.81931818,-0.0624793389 6.42272727,0.0833057853 6.85227273,0.520661157 C7.17954545,0.853884295 7.34318182,1.29123967 7.34318182,1.73900827 C7.34318182,2.18677686 7.17954545,2.613719 6.85227273,2.95735537 L4.12159091,5.72727273 C2.85340909,4.43603306 2.8125,2.40545455 3.95795455,1.04132231 Z"/><path id="XMLID_86_" fill="#0D1026" d="M4.15725524,0.82409409 C4.23068182,0.750667514 4.29361888,0.687730452 4.36704545,0.624793389 L3.95795455,1.03388429 C4.02089161,0.970947237 4.08382867,0.897520664 4.15725524,0.82409409 Z"/></g><g id="XMLID_80_" transform="translate(9.000000, 0.000000)"><path id="XMLID_83_" fill="url(#linearGradient-2)" d="M0.501136364,0.520661157 C0.828409091,0.187438016 1.25795455,0.0208264463 1.69772727,0.0208264463 C2.1375,0.0208264463 2.55681818,0.187438016 2.89431818,0.520661157 L6.80113636,4.4985124 C7.45568182,5.16495868 7.45568182,6.25834711 6.80113636,6.92479339 L3.39545455,10.3923967 C4.53068182,9.0282645 4.46931818,6.97685951 3.20113636,5.68561984 C3.13977273,5.62314049 3.06818182,5.55024793 2.99659091,5.49818182 L0.501136364,2.95735537 C-0.153409091,2.28049587 -0.153409091,1.18710744 0.501136364,0.520661157 Z"/><path id="XMLID_82_" fill="url(#linearGradient-4)" d="M3.38522727,10.3923967 L2.98636364,10.7985124 C2.7,11.0380165 2.39318182,11.2358678 2.06590909,11.3712397 C1.52386364,11.4961984 0.920454545,11.3504132 0.490909091,10.9130578 C0.163636364,10.5798347 5.68434189e-14,10.1424793 5.68434189e-14,9.69471074 C5.68434189e-14,9.25735541 0.163636364,8.82 0.490909091,8.47636364 L3.22159091,5.70644628 C4.48977273,6.99768595 4.53068182,9.0282645 3.38522727,10.3923967 Z"/><path id="XMLID_81_" fill="#0D1026" d="M3.20638112,10.6021869 C3.13295455,10.6756135 3.07001748,10.7385505 2.99659091,10.8014876 L3.40568182,10.3923967 C3.34274475,10.4658233 3.2798077,10.5392499 3.20638112,10.6021869 Z"/></g></g></g><g id="DEVDOJO" fill-rule="nonzero" transform="translate(35.181818, 6.872727)"><g id="DEVDOJ"><g id="path-1-link" fill="#444"><path id="path-1" d="M0.0969979416,11.5135788 L0.0969979416,1.84622885 C0.0969979416,1.08488077 0.698144464,0.482884615 1.45841801,0.482884615 L4.9238509,0.482884615 C8.81362251,0.482884615 11.5011011,3.15645577 11.5011011,6.64449231 L11.5011011,6.67990385 C11.5011011,10.1679404 8.81362251,12.8769231 4.9238509,12.8769231 L1.45841801,12.8769231 C0.698144464,12.8769231 0.0969979416,12.2749269 0.0969979416,11.5135788 Z M2.81983807,10.4158212 L4.9238509,10.4158212 C7.15162919,10.4158212 8.65449549,8.91083077 8.65449549,6.71531538 L8.65449549,6.67990385 C8.65449549,4.48438846 7.15162919,2.94398654 4.9238509,2.94398654 L2.81983807,2.94398654 L2.81983807,10.4158212 Z M15.284788,12.8769231 C14.5245145,12.8769231 13.923368,12.2749269 13.923368,11.5135788 L13.923368,1.84622885 C13.923368,1.08488077 14.5245145,0.482884615 15.284788,0.482884615 L22.1449307,0.482884615 C22.8168003,0.482884615 23.3649045,1.03176346 23.3649045,1.70458269 C23.3649045,2.37740192 22.8168003,2.908575 22.1449307,2.908575 L16.6285273,2.908575 L16.6285273,5.42279423 L21.3492956,5.42279423 C22.0211652,5.42279423 22.5692694,5.97167308 22.5692694,6.64449231 C22.5692694,7.31731154 22.0211652,7.84848462 21.3492956,7.84848462 L16.6285273,7.84848462 L16.6285273,10.4512327 L22.2333346,10.4512327 C22.9052042,10.4512327 23.4533084,11.0001115 23.4533084,11.6729308 C23.4533084,12.34575 22.9052042,12.8769231 22.2333346,12.8769231 L15.284788,12.8769231 Z M30.6140243,13.0716865 C29.8714316,13.0716865 29.3586889,12.6644538 29.0757965,11.9916346 L25.0622594,2.37740192 C24.9738555,2.16493269 24.9031324,1.95246346 24.9031324,1.72228846 C24.9031324,0.960940385 25.5042789,0.37665 26.2645524,0.37665 C26.9717836,0.37665 27.4314839,0.783882692 27.6436533,1.33276154 L30.7377898,9.353475 L33.8672879,1.24423269 C34.0440957,0.801588462 34.5214767,0.37665 35.1756656,0.37665 C35.9182584,0.37665 36.5194049,0.943234615 36.5194049,1.68687692 C36.5194049,1.89934615 36.4486818,2.12952115 36.3779586,2.28887308 L32.32906,11.9916346 C32.0461675,12.6644538 31.5334249,13.0716865 30.7908321,13.0716865 L30.6140243,13.0716865 Z M38.6057369,11.5135788 L38.6057369,1.84622885 C38.6057369,1.08488077 39.2068834,0.482884615 39.967157,0.482884615 L43.4325899,0.482884615 C47.3223615,0.482884615 50.0098401,3.15645577 50.0098401,6.64449231 L50.0098401,6.67990385 C50.0098401,10.1679404 47.3223615,12.8769231 43.4325899,12.8769231 L39.967157,12.8769231 C39.2068834,12.8769231 38.6057369,12.2749269 38.6057369,11.5135788 Z M41.3285771,10.4158212 L43.4325899,10.4158212 C45.6603682,10.4158212 47.1632345,8.91083077 47.1632345,6.71531538 L47.1632345,6.67990385 C47.1632345,4.48438846 45.6603682,2.94398654 43.4325899,2.94398654 L41.3285771,2.94398654 L41.3285771,10.4158212 Z M58.4435722,13.0893923 C54.6245237,13.0893923 51.8840028,10.2387635 51.8840028,6.71531538 L51.8840028,6.67990385 C51.8840028,3.15645577 54.6598852,0.270415385 58.4789337,0.270415385 C62.2979822,0.270415385 65.0385031,3.12104423 65.0385031,6.64449231 L65.0385031,6.67990385 C65.0385031,10.2033519 62.2626206,13.0893923 58.4435722,13.0893923 Z M58.4789337,10.5751731 C60.6713504,10.5751731 62.1918975,8.84000769 62.1918975,6.71531538 L62.1918975,6.67990385 C62.1918975,4.55521154 60.6359889,2.78463462 58.4435722,2.78463462 C56.2511554,2.78463462 54.7306083,4.5198 54.7306083,6.64449231 L54.7306083,6.67990385 C54.7306083,8.80459615 56.286517,10.5751731 58.4789337,10.5751731 Z M69.7415906,13.0539808 C68.3271282,13.0539808 67.2486006,12.575925 66.4706463,11.9739288 C66.1877538,11.7614596 65.9579037,11.3542269 65.9579037,10.9292885 C65.9579037,10.2033519 66.5236886,9.61906154 67.2486006,9.61906154 C67.5845354,9.61906154 67.7967048,9.70759038 68.0619165,9.90235385 C68.6100207,10.3095865 69.0874018,10.5220558 69.7062291,10.5220558 C70.7670759,10.5220558 71.4035839,9.90235385 71.4035839,8.46818654 L71.4035839,1.73999423 C71.4035839,0.978646154 72.0047305,0.37665 72.765004,0.37665 C73.5252776,0.37665 74.1264241,0.978646154 74.1264241,1.73999423 L74.1264241,8.59212692 C74.1264241,10.0617058 73.7020854,11.1594635 72.9594926,11.9031058 C72.199219,12.6644538 71.0853299,13.0539808 69.7415906,13.0539808 Z M85.7426966,13.0893923 C81.9236481,13.0893923 79.1831272,10.2387635 79.1831272,6.71531538 L79.1831272,6.67990385 C79.1831272,3.15645577 81.9590096,0.270415385 85.7780581,0.270415385 C89.5971066,0.270415385 92.3376275,3.12104423 92.3376275,6.64449231 L92.3376275,6.67990385 C92.3376275,10.2033519 89.5617451,13.0893923 85.7426966,13.0893923 Z M85.7780581,10.5751731 C87.9704749,10.5751731 89.4910219,8.84000769 89.4910219,6.71531538 L89.4910219,6.67990385 C89.4910219,4.55521154 87.9351133,2.78463462 85.7426966,2.78463462 C83.5502798,2.78463462 82.0297328,4.5198 82.0297328,6.64449231 L82.0297328,6.67990385 C82.0297328,8.80459615 83.5856414,10.5751731 85.7780581,10.5751731 Z"/></g><g id="path-1-link" fill="#666"><path id="path-1" d="M0.0969979416,11.5135788 L0.0969979416,1.84622885 C0.0969979416,1.08488077 0.698144464,0.482884615 1.45841801,0.482884615 L4.9238509,0.482884615 C8.81362251,0.482884615 11.5011011,3.15645577 11.5011011,6.64449231 L11.5011011,6.67990385 C11.5011011,10.1679404 8.81362251,12.8769231 4.9238509,12.8769231 L1.45841801,12.8769231 C0.698144464,12.8769231 0.0969979416,12.2749269 0.0969979416,11.5135788 Z M2.81983807,10.4158212 L4.9238509,10.4158212 C7.15162919,10.4158212 8.65449549,8.91083077 8.65449549,6.71531538 L8.65449549,6.67990385 C8.65449549,4.48438846 7.15162919,2.94398654 4.9238509,2.94398654 L2.81983807,2.94398654 L2.81983807,10.4158212 Z M15.284788,12.8769231 C14.5245145,12.8769231 13.923368,12.2749269 13.923368,11.5135788 L13.923368,1.84622885 C13.923368,1.08488077 14.5245145,0.482884615 15.284788,0.482884615 L22.1449307,0.482884615 C22.8168003,0.482884615 23.3649045,1.03176346 23.3649045,1.70458269 C23.3649045,2.37740192 22.8168003,2.908575 22.1449307,2.908575 L16.6285273,2.908575 L16.6285273,5.42279423 L21.3492956,5.42279423 C22.0211652,5.42279423 22.5692694,5.97167308 22.5692694,6.64449231 C22.5692694,7.31731154 22.0211652,7.84848462 21.3492956,7.84848462 L16.6285273,7.84848462 L16.6285273,10.4512327 L22.2333346,10.4512327 C22.9052042,10.4512327 23.4533084,11.0001115 23.4533084,11.6729308 C23.4533084,12.34575 22.9052042,12.8769231 22.2333346,12.8769231 L15.284788,12.8769231 Z M30.6140243,13.0716865 C29.8714316,13.0716865 29.3586889,12.6644538 29.0757965,11.9916346 L25.0622594,2.37740192 C24.9738555,2.16493269 24.9031324,1.95246346 24.9031324,1.72228846 C24.9031324,0.960940385 25.5042789,0.37665 26.2645524,0.37665 C26.9717836,0.37665 27.4314839,0.783882692 27.6436533,1.33276154 L30.7377898,9.353475 L33.8672879,1.24423269 C34.0440957,0.801588462 34.5214767,0.37665 35.1756656,0.37665 C35.9182584,0.37665 36.5194049,0.943234615 36.5194049,1.68687692 C36.5194049,1.89934615 36.4486818,2.12952115 36.3779586,2.28887308 L32.32906,11.9916346 C32.0461675,12.6644538 31.5334249,13.0716865 30.7908321,13.0716865 L30.6140243,13.0716865 Z M38.6057369,11.5135788 L38.6057369,1.84622885 C38.6057369,1.08488077 39.2068834,0.482884615 39.967157,0.482884615 L43.4325899,0.482884615 C47.3223615,0.482884615 50.0098401,3.15645577 50.0098401,6.64449231 L50.0098401,6.67990385 C50.0098401,10.1679404 47.3223615,12.8769231 43.4325899,12.8769231 L39.967157,12.8769231 C39.2068834,12.8769231 38.6057369,12.2749269 38.6057369,11.5135788 Z M41.3285771,10.4158212 L43.4325899,10.4158212 C45.6603682,10.4158212 47.1632345,8.91083077 47.1632345,6.71531538 L47.1632345,6.67990385 C47.1632345,4.48438846 45.6603682,2.94398654 43.4325899,2.94398654 L41.3285771,2.94398654 L41.3285771,10.4158212 Z M58.4435722,13.0893923 C54.6245237,13.0893923 51.8840028,10.2387635 51.8840028,6.71531538 L51.8840028,6.67990385 C51.8840028,3.15645577 54.6598852,0.270415385 58.4789337,0.270415385 C62.2979822,0.270415385 65.0385031,3.12104423 65.0385031,6.64449231 L65.0385031,6.67990385 C65.0385031,10.2033519 62.2626206,13.0893923 58.4435722,13.0893923 Z M58.4789337,10.5751731 C60.6713504,10.5751731 62.1918975,8.84000769 62.1918975,6.71531538 L62.1918975,6.67990385 C62.1918975,4.55521154 60.6359889,2.78463462 58.4435722,2.78463462 C56.2511554,2.78463462 54.7306083,4.5198 54.7306083,6.64449231 L54.7306083,6.67990385 C54.7306083,8.80459615 56.286517,10.5751731 58.4789337,10.5751731 Z M69.7415906,13.0539808 C68.3271282,13.0539808 67.2486006,12.575925 66.4706463,11.9739288 C66.1877538,11.7614596 65.9579037,11.3542269 65.9579037,10.9292885 C65.9579037,10.2033519 66.5236886,9.61906154 67.2486006,9.61906154 C67.5845354,9.61906154 67.7967048,9.70759038 68.0619165,9.90235385 C68.6100207,10.3095865 69.0874018,10.5220558 69.7062291,10.5220558 C70.7670759,10.5220558 71.4035839,9.90235385 71.4035839,8.46818654 L71.4035839,1.73999423 C71.4035839,0.978646154 72.0047305,0.37665 72.765004,0.37665 C73.5252776,0.37665 74.1264241,0.978646154 74.1264241,1.73999423 L74.1264241,8.59212692 C74.1264241,10.0617058 73.7020854,11.1594635 72.9594926,11.9031058 C72.199219,12.6644538 71.0853299,13.0539808 69.7415906,13.0539808 Z M85.7426966,13.0893923 C81.9236481,13.0893923 79.1831272,10.2387635 79.1831272,6.71531538 L79.1831272,6.67990385 C79.1831272,3.15645577 81.9590096,0.270415385 85.7780581,0.270415385 C89.5971066,0.270415385 92.3376275,3.12104423 92.3376275,6.64449231 L92.3376275,6.67990385 C92.3376275,10.2033519 89.5617451,13.0893923 85.7426966,13.0893923 Z M85.7780581,10.5751731 C87.9704749,10.5751731 89.4910219,8.84000769 89.4910219,6.71531538 L89.4910219,6.67990385 C89.4910219,4.55521154 87.9351133,2.78463462 85.7426966,2.78463462 C83.5502798,2.78463462 82.0297328,4.5198 82.0297328,6.64449231 L82.0297328,6.67990385 C82.0297328,8.80459615 83.5856414,10.5751731 85.7780581,10.5751731 Z"/></g></g></g></g></g></svg>